<svg width="530" height="519" viewBox="0 0 530 519" fill="none" xmlns="http://www.w3.org/2000/svg">
    <path opacity="0.3" d="M230.21 139.349C299.281 119.4 370.783 157.069 389.948 223.426C409.112 289.783 368.703 359.774 299.632 379.722C230.561 399.671 159.058 362.001 139.894 295.644C120.729 229.287 161.139 159.297 230.21 139.349ZM391.055 223.107C371.702 156.097 299.531 118.128 229.89 138.241C160.249 158.354 119.434 228.955 138.786 295.964C158.139 362.973 230.31 400.943 299.952 380.83C369.593 360.716 410.408 290.116 391.055 223.107ZM221.256 108.348C308.135 83.2562 398.082 130.636 422.191 214.114C446.301 297.592 395.464 385.632 308.585 410.723C221.706 435.815 131.76 388.435 107.65 304.957C83.5408 221.478 134.377 133.439 221.256 108.348ZM423.299 213.794C399.001 129.664 308.385 81.9842 220.936 107.24C133.487 132.496 82.2451 221.146 106.543 305.276C130.841 389.407 221.456 437.087 308.905 411.83C396.354 386.574 447.596 297.925 423.299 213.794ZM213.717 82.2417C315.591 52.8192 421.071 108.376 449.344 206.272C477.617 304.169 418 407.407 316.125 436.829C214.25 466.252 108.771 410.695 80.4976 312.799C52.2242 214.902 111.842 111.664 213.717 82.2417ZM450.451 205.952C421.99 107.404 315.842 51.5472 213.397 81.1343C110.952 110.721 50.9285 214.57 79.3903 313.118C107.852 411.667 214 467.524 316.445 437.937C418.89 408.349 478.913 304.501 450.451 205.952ZM207.591 61.0305C321.65 28.0891 439.749 90.2897 471.405 199.901C503.062 309.512 436.31 425.099 322.251 458.04C208.192 490.982 90.0929 428.781 58.4362 319.17C26.7795 209.559 93.5316 93.9718 207.591 61.0305Z" stroke="url(#paint0_linear_721_5)" stroke-width="1.15265"/>
    <circle cx="225.5" cy="108.504" r="11.5" fill="#0088CD"/>
    <circle cx="88.4995" cy="193.504" r="6.5" fill="#ADC806" fill-opacity="0.9"/>
    <defs>
    <linearGradient id="paint0_linear_721_5" x1="57.8825" y1="319.33" x2="471.959" y2="199.741" gradientUnits="userSpaceOnUse">
    <stop stop-color="#0088CD"/>
    <stop offset="1" stop-color="white" stop-opacity="0"/>
    </linearGradient>
    </defs>
    </svg>
    