<svg   width="25" height="34" viewBox="0 0 25 34" fill="" xmlns="http://www.w3.org/2000/svg">
<path d="M3.35142 18.8372L2.15327 25.4806C2.13349 25.5719 2.09676 25.6549 2.04024 25.7186C1.61354 26.2581 1.34509 26.7202 1.26597 27.0938C1.20945 27.3704 1.26597 27.5918 1.4553 27.7661L6.13485 32.3481C6.43156 32.6276 6.77913 32.8047 7.1917 32.8766C7.64383 32.9596 8.16944 32.9126 8.77416 32.7521C8.78264 32.7521 8.79677 32.7466 8.80807 32.7466C9.03696 32.6857 9.33932 32.6138 9.62473 32.5446C10.8794 32.2458 11.973 31.9829 12.9903 31.0809L14.2958 29.7472C14.3099 29.7251 14.3297 29.7057 14.3467 29.6864C14.3665 29.667 14.4936 29.5425 14.666 29.382C15.5589 28.527 16.6638 27.4728 15.9913 26.5487L15.4685 26.0368C15.2142 26.2747 14.9457 26.5099 14.6886 26.7368C14.4541 26.9388 14.2336 27.127 14.0302 27.3262C13.8154 27.5365 13.465 27.5365 13.2503 27.3262C13.0355 27.1131 13.0355 26.7728 13.2503 26.5625C13.4509 26.3633 13.7024 26.1475 13.9595 25.9233C14.844 25.1597 15.8585 24.2853 15.3131 23.5216L14.796 23.0153C14.7677 22.9876 14.7451 22.9544 14.7197 22.924C14.423 23.2228 14.0952 23.5078 13.7759 23.7845C13.5413 23.9865 13.3209 24.1746 13.1174 24.3739C12.8999 24.5869 12.5523 24.5869 12.3375 24.3739C12.1199 24.1636 12.1199 23.8205 12.3375 23.6102C12.5381 23.4137 12.7896 23.1952 13.0468 22.971C13.9313 22.2074 14.9457 21.333 14.4004 20.5693L13.8832 20.063C13.8465 20.027 13.8182 19.9883 13.7928 19.9468L12.2753 21.4326C12.0578 21.6429 11.7102 21.6429 11.4954 21.4326C11.2807 21.2196 11.2807 20.8792 11.4954 20.6689L14.341 17.8827C15.022 17.2158 15.1775 16.5213 14.9994 15.9956C14.9344 15.8019 14.8242 15.6331 14.6886 15.4976C14.6179 15.4284 14.5388 15.3675 14.4512 15.3149H14.4484C14.406 15.3343 14.3749 15.2928 14.3354 15.2541C14.2873 15.2319 14.2336 15.2098 14.1828 15.1932C13.7109 15.041 13.0977 15.1489 12.476 15.6608C12.4675 15.6691 12.459 15.6774 12.4505 15.6829C12.3827 15.7383 12.3149 15.7992 12.2471 15.8656L6.34113 21.6567C6.12637 21.867 5.77597 21.867 5.56121 21.6567C5.3634 21.4631 5.34645 21.1642 5.51034 20.9512L3.35142 18.8372ZM7.08715 19.3989L7.27648 19.2135L11.1733 15.398C10.7692 15.2153 10.3934 14.958 10.0599 14.6315C8.57635 13.1789 8.57635 10.8325 10.0599 9.37988C11.5435 7.92725 13.9398 7.92725 15.4233 9.37988C16.9069 10.8325 16.9069 13.1789 15.4233 14.6315C15.412 14.6426 15.3979 14.6564 15.3866 14.6675C15.4148 14.6924 15.4459 14.7201 15.4742 14.7477C15.5957 14.8667 15.7002 14.9967 15.7935 15.1351L20.6256 10.4036C19.8853 9.67871 19.8853 8.49447 20.6256 7.76676L17.0255 4.2417C16.2852 4.96663 15.0757 4.96663 14.3325 4.2417L4.31785 14.0477C5.05821 14.7726 5.05821 15.9569 4.31785 16.6846L7.08715 19.3989ZM15.5816 18.1427C15.4516 18.3198 15.3018 18.4969 15.1238 18.6685L14.5586 19.2218L14.553 19.208C14.5953 19.2301 14.6321 19.2578 14.6716 19.2965L15.2114 19.825C15.2396 19.8527 15.2679 19.8887 15.2905 19.9219C15.898 20.7354 15.802 21.4631 15.3894 22.1271C15.4657 22.1548 15.5363 22.1963 15.59 22.2516L16.1298 22.7801C16.158 22.8078 16.1863 22.8438 16.2089 22.877C16.8616 23.7568 16.6978 24.5233 16.2089 25.2233C16.2315 25.2371 16.2513 25.2565 16.2739 25.2786L16.8136 25.8071C16.8419 25.8348 16.8701 25.8708 16.8927 25.904C18.1474 27.5835 16.6525 29.0085 15.4516 30.1595L15.1407 30.4639L13.8013 31.839L13.7589 31.8805C12.5325 32.9707 11.3146 33.2612 9.91014 33.596C9.6756 33.6514 9.4354 33.7122 9.10761 33.7925C9.09913 33.7925 9.09348 33.798 9.085 33.798C8.32486 34 7.63253 34.0498 7.01368 33.9419C6.38352 33.8312 5.83814 33.5545 5.38318 33.1174L0.712106 28.5409C0.237369 28.0954 0.0791229 27.542 0.20911 26.889C0.313666 26.3633 0.62168 25.785 1.11055 25.1597L2.35956 18.2313V18.2036C2.37086 18.1178 2.38782 18.021 2.4076 17.9159L0 15.5584L15.8896 0L25 8.92057L15.5816 18.1427Z" fill="white"/>
</svg>
