<svg width="26" height="22" viewBox="0 0 26 22" fill="none" xmlns="http://www.w3.org/2000/svg">
<g clip-path="url(#clip0_88_565)">
<path fill-rule="evenodd" clip-rule="evenodd" d="M24.9569 8.95681V22H21.929V19.9845H4.07096V22H1.04313V8.95681H0V6.95197H2.54753L3.96729 2.50339C4.38623 1.19097 5.08447 0 6.45134 0H20.0755C21.4424 0 22.2295 1.16754 22.5596 2.50126L23.6577 6.94983H25.9979V8.95468H24.9569V8.95681ZM8.46566 15.9599H17.4095V18.0841H8.46566V15.9599ZM2.05664 11.0128C4.33545 11.0852 5.72982 12.0461 6.0874 14.0509H2.05664V11.0128ZM23.6556 11.0128C21.3768 11.0852 19.9824 12.0461 19.6248 14.0509H23.6556V11.0128ZM3.63509 6.94983H22.3649L21.563 3.21925C21.3429 2.19659 20.7103 1.31242 19.6693 1.31242H6.71582C5.67481 1.31242 5.1416 2.22003 4.8221 3.21925L3.63509 6.94983Z" fill="white"/>
</g>
<defs>
<clipPath id="clip0_88_565">
<rect width="26" height="22" fill="white"/>
</clipPath>
</defs>
</svg>
