<svg width="25" height="37" viewBox="0 0 25 37" fill="none" xmlns="http://www.w3.org/2000/svg">
<path fill-rule="evenodd" clip-rule="evenodd" d="M17.6215 26.3457L18.7551 20.53L19.9062 22.2785C22.3831 21.2764 23.7761 19.6219 23.983 17.074C26.017 20.6622 24.7814 23.8801 22.2025 25.7638L23.3769 27.5477L17.6215 26.3457ZM2.83833 22.878L1.82422 28.6761C1.80965 28.7555 1.7776 28.8289 1.72806 28.8848C1.36671 29.355 1.13941 29.7605 1.07239 30.0867C1.02576 30.3277 1.07239 30.5216 1.23266 30.6745L5.19874 34.6741C5.44935 34.918 5.74368 35.0708 6.09337 35.1355C6.47511 35.2089 6.92097 35.1678 7.43385 35.0267C7.44259 35.0267 7.45425 35.0238 7.46299 35.0238C7.65824 34.9709 7.91176 34.9062 8.15654 34.8475C9.22019 34.5859 10.1469 34.3567 11.0065 33.572L12.1139 32.4083C12.1255 32.3877 12.143 32.373 12.1576 32.3554C12.1722 32.3407 12.28 32.232 12.4286 32.0909C13.1863 31.3445 14.1217 30.4247 13.5505 29.6165L13.1076 29.1698C12.8919 29.3785 12.6646 29.5842 12.4461 29.7811C12.2479 29.9574 12.0585 30.122 11.8895 30.2954C11.7059 30.4805 11.4116 30.4805 11.228 30.2954C11.0444 30.1102 11.0444 29.8134 11.228 29.6283C11.3999 29.4549 11.6097 29.2668 11.8283 29.0699C12.5772 28.4028 13.4369 27.6417 12.9735 26.9746L12.5364 26.5338C12.5131 26.5103 12.4927 26.4809 12.4723 26.4544C12.2217 26.716 11.942 26.9658 11.6709 27.2038C11.4728 27.3801 11.2834 27.5447 11.1143 27.7181C10.9308 27.9032 10.6364 27.9032 10.4528 27.7181C10.2693 27.533 10.2693 27.2361 10.4528 27.051C10.6248 26.8776 10.8346 26.6895 11.0532 26.4926C11.8021 25.8256 12.6617 25.0644 12.2013 24.3973L11.7642 23.9565C11.7321 23.9242 11.7088 23.8919 11.6884 23.8566L10.4033 25.1526C10.2197 25.3377 9.9254 25.3377 9.74181 25.1526C9.55822 24.9674 9.55822 24.6706 9.74181 24.4855L12.1518 22.0552C12.7288 21.4733 12.8599 20.8679 12.7084 20.4095C12.653 20.242 12.5597 20.0921 12.4461 19.9745C12.3878 19.9158 12.3179 19.8599 12.245 19.8159H12.2421C12.2071 19.8335 12.1809 19.7953 12.1459 19.763C12.1051 19.7424 12.0614 19.7248 12.0148 19.7101C11.6127 19.5778 11.0969 19.6719 10.5665 20.1185C10.5607 20.1274 10.5519 20.1332 10.5432 20.1362C10.4849 20.1861 10.4295 20.239 10.3713 20.2949L5.37359 25.3407C5.19 25.5258 4.89568 25.5258 4.71209 25.3407C4.54598 25.1732 4.53141 24.9087 4.66838 24.7235L2.83833 22.878ZM6.00594 23.3688L6.16622 23.2071L9.46789 19.8776C9.12694 19.7189 8.80639 19.4926 8.52663 19.2105C7.27066 17.9439 7.27066 15.8956 8.52663 14.629C9.78261 13.3624 11.8137 13.3624 13.0697 14.629C14.3257 15.8956 14.3257 17.9439 13.0697 19.2105C13.058 19.2222 13.0493 19.231 13.0377 19.2428C13.0639 19.2663 13.0872 19.2898 13.1105 19.3133C13.2125 19.4162 13.3028 19.5308 13.3815 19.6513L17.4758 15.5224C16.8464 14.8876 16.8464 13.8561 17.4758 13.2213L14.4248 10.1416C13.7953 10.7763 12.7725 10.7763 12.143 10.1416L3.65719 18.6991C4.28663 19.3339 4.28663 20.3654 3.65719 21.0002L6.00594 23.3688ZM13.2038 22.2726C13.093 22.4284 12.9648 22.5812 12.8162 22.7311L12.3354 23.216L12.3324 23.2042C12.3674 23.2248 12.3995 23.2483 12.4315 23.2806L12.889 23.742C12.9123 23.7655 12.9357 23.7978 12.9561 23.8272C13.4689 24.5384 13.3903 25.1732 13.0406 25.7492C13.1047 25.7727 13.163 25.8079 13.2125 25.8579L13.67 26.3193C13.6933 26.3428 13.7166 26.3751 13.737 26.4045C14.2907 27.1715 14.1508 27.8415 13.737 28.4528C13.7574 28.4645 13.772 28.4822 13.7924 28.4998L14.2499 28.9612C14.2732 28.9847 14.2965 29.017 14.3169 29.0464C15.3806 30.5128 14.1129 31.7559 13.0959 32.761L12.8337 33.0254L11.7001 34.2274L11.6651 34.2626C10.6248 35.2148 9.59319 35.4675 8.40424 35.7614C8.20608 35.8084 8.0021 35.8613 7.72235 35.9348C7.7136 35.9348 7.71069 35.9377 7.70195 35.9377C7.05793 36.1141 6.4722 36.1581 5.94475 36.0612C5.41147 35.9642 4.94813 35.7232 4.56347 35.3412L0.603217 31.3474C0.201072 30.9566 0.0670241 30.4746 0.17776 29.9045C0.265182 29.4461 0.527451 28.9406 0.941252 28.394L1.99907 22.3461V22.3226C2.01072 22.2491 2.02529 22.1639 2.03986 22.0757L0 20.0186L13.4631 6.4417L21.1825 14.2264L13.2038 22.2726ZM10.447 1.20194L9.31344 7.01769L8.16237 5.26914C5.68539 6.27125 4.29246 7.92575 4.08556 10.4707C2.04861 6.88251 3.2871 3.6646 5.86607 1.78087L4.69169 0L10.447 1.20194Z" fill="white"/>
</svg>
