<svg width="27" height="27" viewBox="0 0 27 27" fill="none" xmlns="http://www.w3.org/2000/svg">
<path d="M12.0922 23.1648C12.0258 23.1648 11.9588 23.1539 11.8939 23.1308C11.6361 23.0389 11.4749 22.7831 11.503 22.5111L11.8871 18.8038L10.2609 19.1171C10.0271 19.1621 9.78882 19.0625 9.65664 18.8649C9.52416 18.6672 9.52268 18.4093 9.65308 18.2102L13.7859 11.9005C13.9362 11.6717 14.2234 11.5757 14.4803 11.6667C14.7379 11.7583 14.8994 12.0143 14.8712 12.2861L14.4868 15.9933L16.1136 15.6801C16.3483 15.6347 16.5854 15.7346 16.7179 15.9323C16.8504 16.13 16.8518 16.3878 16.7214 16.587L12.5883 22.8966C12.4763 23.0679 12.2878 23.1648 12.0922 23.1648Z" fill="black"/>
<path d="M25.7476 25.1769H1.22208C0.834432 25.1769 0.487386 24.9762 0.293561 24.641C0.0997373 24.3053 0.0997373 23.9046 0.293561 23.5688L12.5563 2.32874C12.7502 1.99325 13.0972 1.79291 13.4846 1.79291C13.8722 1.79291 14.2193 1.99325 14.4131 2.32874L26.6762 23.5688C26.8697 23.9046 26.8697 24.3053 26.6759 24.641C26.482 24.9765 26.135 25.1769 25.7476 25.1769ZM1.41827 23.9914H25.5515L13.4849 3.09159L1.41827 23.9914ZM13.583 2.92147L13.5827 2.92207L13.583 2.92147Z" fill="black"/>
<path d="M21.8072 22.9977H15.7575C15.4303 22.9977 15.1647 22.7324 15.1647 22.405C15.1647 22.0775 15.43 21.8122 15.7575 21.8122H21.611L13.4849 7.73744L5.35853 21.8122H9.05038C9.37757 21.8122 9.64311 22.0775 9.64311 22.405C9.64311 22.7324 9.37786 22.9977 9.05038 22.9977H5.16263C4.77498 22.9977 4.42794 22.797 4.23411 22.4616C4.04029 22.1261 4.04029 21.7254 4.23411 21.3896L12.5564 6.97489C12.7502 6.6394 13.0973 6.43906 13.4846 6.43906C13.8723 6.43906 14.219 6.6394 14.4131 6.97489L22.7357 21.3899C22.9292 21.7257 22.9292 22.1264 22.7354 22.4622C22.5416 22.7973 22.1946 22.9977 21.8072 22.9977Z" fill="black"/>
</svg>
