<svg width="27" height="27" viewBox="0 0 27 27" fill="none" xmlns="http://www.w3.org/2000/svg">
<path d="M23.109 5.26957L18.3826 0.543107C18.1283 0.288528 17.7895 0.148346 17.4298 0.148346H4.8137C4.07041 0.148346 3.46582 0.752935 3.46582 1.49622V25.4735C3.46582 26.2168 4.07041 26.8214 4.8137 26.8214H22.1559C22.8992 26.8214 23.5041 26.2168 23.5041 25.4735V6.22269C23.5041 5.8626 23.3636 5.52385 23.109 5.26957ZM18.2483 1.66604L21.9858 5.40383H18.6268C18.4181 5.40383 18.2486 5.23401 18.2486 5.02536L18.2483 1.66604ZM22.1559 25.9323H4.8137C4.5606 25.9323 4.35492 25.7266 4.35492 25.4735V1.49622C4.35492 1.24313 4.5606 1.03745 4.8137 1.03745H17.3595V5.02536C17.3595 5.7242 17.9279 6.29293 18.6268 6.29293H22.615V25.4735C22.615 25.7266 22.409 25.9323 22.1559 25.9323Z" fill="black"/>
<path d="M19.6717 22.0342H7.29782C7.05213 22.0342 6.85327 21.835 6.85327 21.5896V11.3078C6.85327 11.0621 7.05213 10.8632 7.29782 10.8632C7.54351 10.8632 7.74237 11.0621 7.74237 11.3078V21.1451H19.6717C19.9171 21.1451 20.1163 21.3442 20.1163 21.5896C20.1163 21.835 19.9171 22.0342 19.6717 22.0342Z" fill="black"/>
<path d="M19.5446 13.9078L18.9862 11.3075L17.0133 13.091L17.8446 13.3592C16.4894 16.3211 13.8351 17.995 9.73811 18.4638C9.4942 18.4917 9.31905 18.7122 9.34691 18.9561C9.37269 19.1828 9.56503 19.35 9.7879 19.35C9.80479 19.35 9.82198 19.3491 9.83888 19.347C14.2547 18.8417 17.2291 16.9174 18.6946 13.6334L19.5446 13.9078Z" fill="black"/>
</svg>
