<svg width="27" height="27" viewBox="0 0 27 27" fill="none" xmlns="http://www.w3.org/2000/svg">
<path d="M5.49927 19.2614V20.5019C5.49927 20.7965 5.73814 21.0354 6.03273 21.0354H8.38588C8.68047 21.0354 8.91934 20.7965 8.91934 20.5019V19.2614H5.49927Z" fill="black"/>
<path d="M17.968 19.2614V20.5019C17.968 20.7965 18.2069 21.0354 18.5015 21.0354H20.8546C21.1492 21.0354 21.3881 20.7965 21.3881 20.5019V19.2614H17.968Z" fill="black"/>
<path d="M19.4481 11.3083L18.5895 8.3168C18.4277 7.89892 18.0255 7.6236 17.5771 7.6236H12.8752H9.30993C8.86182 7.6236 8.45965 7.89892 8.29754 8.3168L7.43896 11.3083H19.4481Z" fill="black"/>
<path d="M21.0973 13.5237L19.8164 12.1936H7.07115L5.79025 13.524C5.42364 13.9048 5.23189 14.4211 5.26094 14.9489L5.49921 19.2617H9.43171C9.73134 19.2617 10.0126 19.1176 10.1877 18.8749C10.3629 18.6319 10.6441 18.4881 10.9438 18.4881H15.9435C16.2431 18.4881 16.5244 18.6322 16.6995 18.8749C16.8747 19.1179 17.1559 19.2617 17.4556 19.2617H21.3881L21.6263 14.9489C21.6557 14.4208 21.4639 13.9045 21.0973 13.5237ZM9.8564 16.4601L6.76174 16.2035C6.51961 16.1833 6.32015 16.0055 6.27273 15.7672L6.1779 15.2909C6.10084 14.9036 6.44878 14.5654 6.83376 14.6537L10.0233 15.3867C10.2704 15.4436 10.4459 15.6635 10.4459 15.9175C10.4459 16.2358 10.1738 16.4862 9.8564 16.4601ZM15.2814 17.7511H11.6059C11.4432 17.7511 11.3116 17.6195 11.3116 17.4568C11.3116 17.2941 11.4435 17.1625 11.6059 17.1625H15.2814C15.4441 17.1625 15.5757 17.2941 15.5757 17.4568C15.5757 17.6192 15.4441 17.7511 15.2814 17.7511ZM15.2814 16.8208H11.6059C11.4432 16.8208 11.3116 16.6892 11.3116 16.5265C11.3116 16.3638 11.4435 16.2322 11.6059 16.2322H15.2814C15.4441 16.2322 15.5757 16.3638 15.5757 16.5265C15.5757 16.6892 15.4441 16.8208 15.2814 16.8208ZM20.5363 15.2909L20.4415 15.7672C20.394 16.0055 20.1946 16.1833 19.9524 16.2035L16.8578 16.4601C16.5404 16.4865 16.2683 16.2361 16.2683 15.9175C16.2683 15.6638 16.4435 15.4436 16.6909 15.3867L19.8804 14.6537C20.2654 14.5654 20.6136 14.9033 20.5363 15.2909Z" fill="black"/>
<path d="M0.336914 15.0933V16.0627C0.336914 16.293 0.523625 16.4797 0.753903 16.4797H2.59256C2.82284 16.4797 3.00955 16.293 3.00955 16.0627V15.0933H0.336914Z" fill="black"/>
<path d="M7.52614 8.07646C7.90134 7.10793 8.85149 6.45741 9.89026 6.45741H10.5577C10.4264 6.14148 10.1188 5.93402 9.77527 5.93402H6.10091H3.31476C2.96446 5.93402 2.65031 6.14918 2.52376 6.47578L1.85278 8.81353H7.31364L7.52614 8.07646Z" fill="black"/>
<path d="M5.32558 12.802L6.64382 11.4331L7.18084 9.57013H1.56527L0.564142 10.6098C0.277555 10.9073 0.127889 11.3107 0.150413 11.7232L0.336828 15.0932H3.40986C3.64399 15.0932 3.8636 14.9809 4.00052 14.7909C4.10958 14.6398 4.2714 14.5408 4.451 14.5055C4.57192 13.8701 4.87095 13.2741 5.32558 12.802ZM3.74179 12.904L1.32343 12.7033C1.13435 12.6876 0.978463 12.5486 0.941417 12.3625L0.867325 11.9903C0.807163 11.6874 1.07893 11.4233 1.38004 11.4924L3.87249 12.0649C4.06572 12.1094 4.20264 12.2813 4.20264 12.4796C4.20264 12.7288 3.98985 12.9244 3.74179 12.904Z" fill="black"/>
<path d="M23.9602 15.0933V16.0627C23.9602 16.293 24.1469 16.4797 24.3772 16.4797H26.2159C26.4461 16.4797 26.6328 16.293 26.6328 16.0627V15.0933H23.9602Z" fill="black"/>
<path d="M16.9974 6.4574C18.0362 6.4574 18.9864 7.10792 19.3616 8.07645L19.403 8.20033L19.5791 8.81322H25.117L24.446 6.47548C24.3195 6.14888 24.0053 5.93372 23.655 5.93372H19.9807H17.1945C16.851 5.93372 16.5434 6.14117 16.4121 6.4571L16.9974 6.4574Z" fill="black"/>
<path d="M26.4056 10.6095L25.4044 9.56982H19.7109L20.2468 11.4363L21.5617 12.8017C22.014 13.2714 22.3122 13.8636 22.4343 14.4949C22.6467 14.5115 22.8432 14.6161 22.9689 14.7903C23.1058 14.98 23.3257 15.0926 23.5596 15.0926H26.6326L26.819 11.7226C26.8418 11.3104 26.6922 10.907 26.4056 10.6095ZM25.9672 11.9903L25.8932 12.3625C25.8561 12.5486 25.7002 12.6876 25.5111 12.7033L23.0928 12.904C22.8447 12.9244 22.6322 12.7288 22.6322 12.4799C22.6322 12.2816 22.7691 12.1097 22.9624 12.0652L25.4548 11.4927C25.7556 11.4233 26.0277 11.6877 25.9672 11.9903Z" fill="black"/>
</svg>
