<svg width="29" height="27" viewBox="0 0 29 27" fill="none" xmlns="http://www.w3.org/2000/svg">
<g clip-path="url(#clip0_148_296)">
<path d="M13.3763 7.4416L5.78482 9.97169L14.0569 13.7262L22.329 10.0776L16.1525 7.95969V6.81594L23.988 9.50134C24.2288 9.59903 24.3747 9.81747 24.3533 10.0606C24.3549 10.0721 24.3549 10.0858 24.3549 10.099V20.0037L26.1428 21.036L25.7935 19.9817C25.596 19.3648 26.9282 18.7962 27.1975 19.7671L28.0503 22.2884C28.1622 22.7127 27.9521 23.0875 27.5298 23.2083L24.9028 23.745C24.044 23.9667 23.5783 22.6902 24.5315 22.3543L25.4935 22.1819L19.1086 18.4938C18.7943 18.3116 18.6863 17.9088 18.8678 17.5938C19.0493 17.2787 19.4524 17.1712 19.7667 17.3528L23.2696 19.3764V10.8454L14.5949 14.6707V25.5759L21.9012 21.8598L23.0189 22.5052L14.3339 26.9216C14.2469 26.9739 14.147 27.0009 14.0456 26.9994C13.9441 26.9979 13.8451 26.9681 13.7597 26.9134L5.18154 22.4355L6.28993 21.7956L13.5112 25.5655V14.6658L4.80641 10.7164V19.378L8.31312 17.3528C8.62738 17.1712 9.03048 17.2787 9.21201 17.5938C9.39354 17.9088 9.2855 18.3116 8.97125 18.4938L2.58634 22.1819L3.5483 22.3543C4.50148 22.6902 4.03586 23.9667 3.177 23.745L0.549987 23.2083C0.12769 23.0875 -0.0823612 22.7127 0.0295201 22.2884L0.88234 19.7671C1.15162 18.7962 2.48378 19.3648 2.28634 19.9817L1.93699 21.036L3.72489 20.0037L3.72325 9.90199C3.72325 9.60672 3.92452 9.4739 4.18832 9.36469L13.3763 6.30389L13.3757 2.5148L12.6376 3.34462C12.2026 3.82375 11.0443 2.95386 11.7502 2.2349L13.5068 0.235528C13.8178 -0.074009 14.2472 -0.0789484 14.5626 0.226747L16.3401 2.2349C16.9614 2.86824 16.09 3.90991 15.3227 3.25187L14.6925 2.50492L14.6931 9.88223C14.6925 10.2456 14.398 10.5403 14.0344 10.5408C13.6708 10.5408 13.3763 10.2456 13.3763 9.88223V7.4416Z" fill="black"/>
</g>
<defs>
<clipPath id="clip0_148_296">
<rect width="28.08" height="27" fill="white"/>
</clipPath>
</defs>
</svg>
