<svg width="27" height="27" viewBox="0 0 27 27" fill="none" xmlns="http://www.w3.org/2000/svg">
<path d="M5.12918 17.885C4.96559 17.885 4.83282 17.7525 4.83282 17.5886V5.14148H0.444805C0.28121 5.14148 0.148438 5.0087 0.148438 4.84511C0.148438 3.39024 1.33213 2.20685 2.78699 2.20685C4.24186 2.20685 5.42555 3.39054 5.42555 4.84511V17.5886C5.42555 17.7522 5.29278 17.885 5.12918 17.885ZM0.76251 4.54874H4.81118C4.66715 3.56095 3.8142 2.79958 2.7867 2.79958C1.75919 2.79958 0.906545 3.56065 0.76251 4.54874Z" fill="white"/>
<path d="M19.8544 12.77C19.6905 12.77 19.558 12.6372 19.558 12.4737V4.84487C19.558 3.71689 18.6402 2.79934 17.5122 2.79934C17.3483 2.79934 17.2158 2.66657 17.2158 2.50297C17.2158 2.33938 17.3483 2.2066 17.5122 2.2066C18.9671 2.2066 20.1507 3.39029 20.1507 4.84487V12.474C20.1507 12.6375 20.0183 12.77 19.8544 12.77Z" fill="white"/>
<path d="M17.5124 2.79903H2.78709C2.6235 2.79903 2.49072 2.66626 2.49072 2.50267C2.49072 2.33907 2.6235 2.2063 2.78709 2.2063H17.5124C17.6763 2.2063 17.8088 2.33907 17.8088 2.50267C17.8088 2.66626 17.6763 2.79903 17.5124 2.79903Z" fill="white"/>
<path d="M22.1967 24.7634C22.0328 24.7634 21.9003 24.6309 21.9003 24.4671C21.9003 24.3032 22.0328 24.1707 22.1967 24.1707C23.2242 24.1707 24.0768 23.4096 24.2209 22.4215H19.8545C19.6906 22.4215 19.5581 22.2891 19.5581 22.1252C19.5581 21.9613 19.6906 21.8288 19.8545 21.8288H24.5386C24.7024 21.8288 24.8349 21.9613 24.8349 22.1252C24.8349 23.58 23.6515 24.7634 22.1967 24.7634Z" fill="white"/>
<path d="M19.8545 22.4212C19.6906 22.4212 19.5581 22.2888 19.5581 22.1249V16.0529C19.5581 15.889 19.6906 15.7565 19.8545 15.7565C20.0184 15.7565 20.1508 15.889 20.1508 16.0529V22.1249C20.1508 22.2888 20.0184 22.4212 19.8545 22.4212Z" fill="white"/>
<path d="M7.47108 24.7634C6.01621 24.7634 4.83252 23.58 4.83252 22.1251V17.5884C4.83252 17.4245 4.96529 17.292 5.12889 17.292C5.29248 17.292 5.42525 17.4245 5.42525 17.5884V22.1251C5.42525 23.2531 6.3431 24.1707 7.47108 24.1707C7.63467 24.1707 7.76744 24.3032 7.76744 24.467C7.76744 24.6309 7.63497 24.7634 7.47108 24.7634Z" fill="white"/>
<path d="M22.1968 24.7634H7.47117C7.30758 24.7634 7.1748 24.6309 7.1748 24.467C7.1748 24.3031 7.30758 24.1707 7.47117 24.1707H22.1965C22.3604 24.1707 22.4928 24.3031 22.4928 24.467C22.4928 24.6309 22.3604 24.7634 22.1968 24.7634Z" fill="white"/>
<path d="M7.47117 24.7634C7.30758 24.7634 7.1748 24.6309 7.1748 24.4671C7.1748 24.3032 7.30758 24.1707 7.47117 24.1707C8.59915 24.1707 9.51699 23.2528 9.51699 22.1252C9.51699 21.9613 9.64977 21.8288 9.81336 21.8288H19.8546C20.0185 21.8288 20.1509 21.9613 20.1509 22.1252C20.1509 22.2891 20.0185 22.4215 19.8546 22.4215H10.0934C9.94554 23.7371 8.82616 24.7634 7.47117 24.7634Z" fill="white"/>
<path d="M13.9145 15.9598H8.26097C8.09737 15.9598 7.9646 15.8273 7.9646 15.6634C7.9646 15.4995 8.09737 15.3671 8.26097 15.3671H13.9148C14.0787 15.3671 14.2111 15.4995 14.2111 15.6634C14.2111 15.8273 14.0784 15.9598 13.9145 15.9598Z" fill="white"/>
<path d="M13.0932 19.3579H8.26097C8.09737 19.3579 7.9646 19.2255 7.9646 19.0616C7.9646 18.8977 8.09737 18.7652 8.26097 18.7652H13.0932C13.2568 18.7652 13.3896 18.8977 13.3896 19.0616C13.3896 19.2255 13.2568 19.3579 13.0932 19.3579Z" fill="white"/>
<path d="M12.5936 13.7812C12.5655 13.7812 12.5376 13.7774 12.5103 13.7694C10.6803 13.2341 9.45093 11.7852 9.45093 10.1638V7.13785C9.45093 6.99056 9.5591 6.86549 9.70491 6.84445C10.7887 6.68826 11.6704 6.30773 12.4004 5.68091C12.5115 5.58577 12.6754 5.58577 12.7865 5.68091C13.5165 6.30773 14.3985 6.68826 15.482 6.84445C15.6278 6.86549 15.736 6.99056 15.736 7.13785V10.1635C15.736 11.7849 14.5067 13.2338 12.6766 13.7691C12.6496 13.7774 12.6215 13.7812 12.5936 13.7812ZM10.0437 7.39006V10.1638C10.0437 11.4953 11.0646 12.6965 12.5936 13.1751C14.1226 12.6965 15.1435 11.4953 15.1435 10.1638V7.39006C14.1614 7.21253 13.3055 6.84296 12.5936 6.28876C11.8817 6.84296 11.0258 7.21253 10.0437 7.39006Z" fill="white"/>
<path d="M12.244 10.9716C12.2431 10.9716 12.2425 10.9716 12.2416 10.9716C12.1554 10.9711 12.0739 10.9328 12.0181 10.867L11.1868 9.88724C11.081 9.76247 11.0961 9.57546 11.2212 9.46936C11.3463 9.36385 11.533 9.37897 11.6391 9.50374L12.2481 10.2215L13.7658 8.49224C13.874 8.36895 14.0613 8.35709 14.184 8.46497C14.307 8.57285 14.3194 8.76015 14.2116 8.88314L12.4674 10.8706C12.4105 10.9349 12.3293 10.9716 12.244 10.9716Z" fill="white"/>
<path d="M15.1079 19.3067C15.0309 19.3067 14.955 19.2764 14.8984 19.2198C14.8145 19.1363 14.7888 19.0103 14.8326 18.9003L16.024 15.9192C16.0391 15.8818 16.0614 15.8481 16.0898 15.8196L24.1557 7.75368C24.4506 7.4585 24.8427 7.29639 25.26 7.29639C25.6773 7.29639 26.0694 7.4588 26.3646 7.75368C26.6591 8.04857 26.8216 8.44066 26.8216 8.85795C26.8216 9.27523 26.6591 9.66732 26.364 9.96221L18.298 18.0281C18.2696 18.0566 18.2358 18.0788 18.1985 18.0939L15.2176 19.2856C15.1823 19.2996 15.145 19.3067 15.1079 19.3067ZM16.5518 16.1954L15.6396 18.4786L17.9222 17.5661L25.9449 9.54344C26.1281 9.36029 26.2288 9.11667 26.2288 8.85795C26.2288 8.59922 26.1281 8.3559 25.9449 8.17274C25.5792 7.80673 24.9405 7.80643 24.5745 8.17274L16.5518 16.1954Z" fill="white"/>
<path d="M15.1079 19.3067C15.0309 19.3067 14.955 19.2765 14.8984 19.2199C14.8145 19.1363 14.7888 19.0103 14.8326 18.9004L16.024 15.9192C16.0611 15.8265 16.142 15.7589 16.2398 15.739C16.3367 15.7198 16.4383 15.7494 16.5089 15.8196L18.2983 17.6091C18.3686 17.6793 18.3991 17.7807 18.3789 17.8782C18.3588 17.9757 18.2912 18.0569 18.1988 18.094L15.2179 19.2857C15.1823 19.2996 15.145 19.3067 15.1079 19.3067ZM16.4072 16.5567L15.6396 18.4787L17.5613 17.7105L16.4072 16.5567Z" fill="white"/>
<path d="M25.4992 10.7046C25.4207 10.7046 25.3451 10.6735 25.2897 10.6178L23.4999 8.82801C23.4442 8.7723 23.4131 8.69702 23.4131 8.61848C23.4131 8.53994 23.4442 8.46437 23.4999 8.40895L24.1555 7.75368C24.4504 7.4585 24.8425 7.29639 25.2598 7.29639C25.677 7.29639 26.0691 7.4588 26.3643 7.75368C26.6592 8.04857 26.8216 8.44066 26.8216 8.85795C26.8216 9.27523 26.6592 9.66732 26.364 9.96221L25.7087 10.6178C25.6533 10.6735 25.578 10.7046 25.4992 10.7046ZM24.1285 8.61878L25.4992 9.98918L25.945 9.54344C26.1281 9.36029 26.2289 9.11667 26.2289 8.85795C26.2289 8.59922 26.1281 8.3559 25.945 8.17274C25.5792 7.80673 24.9406 7.80643 24.5745 8.17274L24.1285 8.61878Z" fill="white"/>
<path d="M22.5906 15.2441C22.5148 15.2441 22.4389 15.215 22.3811 15.1573C22.2652 15.0414 22.2652 14.8541 22.3811 14.7382L25.2896 11.8296C25.6237 11.4956 25.6237 10.9521 25.2896 10.6181C25.1738 10.5022 25.1738 10.3149 25.2896 10.199C25.4055 10.0832 25.5928 10.0832 25.7087 10.199C26.2739 10.7642 26.2739 11.6838 25.7087 12.249L22.8002 15.1576C22.7421 15.215 22.6662 15.2441 22.5906 15.2441Z" fill="white"/>
</svg>
