<svg width="27" height="27" viewBox="0 0 27 27" fill="none" xmlns="http://www.w3.org/2000/svg">
<g clip-path="url(#clip0_147_263)">
<path d="M14.0776 14.0776H0.148315V2.51247C0.148315 1.20875 1.20872 0.148346 2.51244 0.148346H14.0776V14.0776ZM1.33378 12.8921H12.8921V1.33381H2.51244C1.8625 1.33381 1.33378 1.86253 1.33378 2.51247V12.8921Z" fill="black"/>
<path d="M7.113 10.3123C6.78581 10.3123 6.52026 10.0467 6.52026 9.71953V4.50643C6.52026 4.17924 6.78581 3.9137 7.113 3.9137C7.44019 3.9137 7.70573 4.17924 7.70573 4.50643V9.71983C7.70573 10.047 7.44019 10.3123 7.113 10.3123Z" fill="black"/>
<path d="M9.71953 7.7057H4.50643C4.17924 7.7057 3.9137 7.44016 3.9137 7.11297C3.9137 6.78578 4.17924 6.52023 4.50643 6.52023H9.71983C10.047 6.52023 10.3126 6.78578 10.3126 7.11297C10.3126 7.44016 10.047 7.7057 9.71953 7.7057Z" fill="black"/>
<path d="M26.8213 14.0776H12.8921V0.148346H24.4572C25.7609 0.148346 26.8213 1.20875 26.8213 2.51247V14.0776ZM14.0776 12.8921H25.6359V2.51247C25.6359 1.86253 25.1072 1.33381 24.4572 1.33381H14.0776V12.8921Z" fill="black"/>
<path d="M22.4635 7.7057H17.2498C16.9226 7.7057 16.6571 7.44016 16.6571 7.11297C16.6571 6.78578 16.9226 6.52023 17.2498 6.52023H22.4635C22.7907 6.52023 23.0563 6.78578 23.0563 7.11297C23.0563 7.44016 22.7907 7.7057 22.4635 7.7057Z" fill="black"/>
<path d="M14.0776 26.8214H2.51244C1.20872 26.8214 0.148315 25.761 0.148315 24.4573V12.8921H14.0776V26.8214ZM1.33378 14.0776V24.4573C1.33378 25.1072 1.8625 25.6359 2.51244 25.6359H12.8921V14.0776H1.33378Z" fill="black"/>
<path d="M5.26978 22.2929C5.11804 22.2929 4.9666 22.2351 4.85072 22.1192C4.61926 21.8878 4.61926 21.5126 4.85072 21.2811L8.53694 17.5946C8.7681 17.3631 9.1436 17.3631 9.37506 17.5946C9.60653 17.826 9.60653 18.2013 9.37506 18.4327L5.68885 22.1192C5.57326 22.2348 5.42123 22.2929 5.26978 22.2929Z" fill="black"/>
<path d="M8.956 22.2929C8.80426 22.2929 8.65252 22.2351 8.53694 22.1192L4.85072 18.4324C4.61926 18.201 4.61926 17.8258 4.85072 17.5943C5.08218 17.3628 5.45768 17.3628 5.68885 17.5943L9.37506 21.2808C9.60653 21.5123 9.60653 21.8875 9.37506 22.119C9.25948 22.2348 9.10774 22.2929 8.956 22.2929Z" fill="black"/>
<path d="M24.4572 26.8214H12.8921V12.8921H26.8213V24.4573C26.8213 25.761 25.7609 26.8214 24.4572 26.8214ZM14.0776 25.6359H24.4572C25.1072 25.6359 25.6359 25.1072 25.6359 24.4573V14.0776H14.0776V25.6359Z" fill="black"/>
<path d="M22.4635 21.9044H17.2498C16.9226 21.9044 16.6571 21.6388 16.6571 21.3116C16.6571 20.9844 16.9226 20.7189 17.2498 20.7189H22.4635C22.7907 20.7189 23.0563 20.9844 23.0563 21.3116C23.0563 21.6388 22.7907 21.9044 22.4635 21.9044Z" fill="black"/>
<path d="M22.4635 18.9946H17.2498C16.9226 18.9946 16.6571 18.7291 16.6571 18.4019C16.6571 18.0747 16.9226 17.8092 17.2498 17.8092H22.4635C22.7907 17.8092 23.0563 18.0747 23.0563 18.4019C23.0563 18.7291 22.7907 18.9946 22.4635 18.9946Z" fill="black"/>
</g>
<defs>
<clipPath id="clip0_147_263">
<rect width="27" height="27" fill="white"/>
</clipPath>
</defs>
</svg>
