<svg width="27" height="27" viewBox="0 0 27 27" fill="none" xmlns="http://www.w3.org/2000/svg">
<path d="M23.3219 0.148376H10.7192C9.90418 0.148376 9.24121 0.81135 9.24121 1.62636V12.7351C9.24121 12.8987 9.37398 13.0315 9.53758 13.0315C9.70117 13.0315 9.83395 12.8987 9.83395 12.7351V3.5483H24.2069V22.5093H10.844C10.6804 22.5093 10.5476 22.6418 10.5476 22.8056C10.5476 22.9695 10.6804 23.102 10.844 23.102H24.2069V25.3434C24.2069 25.8313 23.8097 26.2284 23.3219 26.2284H10.7192C10.2311 26.2284 9.83395 25.8313 9.83395 25.3434C9.83395 25.1796 9.70117 25.0471 9.53758 25.0471C9.37398 25.0471 9.24121 25.1796 9.24121 25.3434C9.24121 26.1582 9.90418 26.8211 10.7192 26.8211H23.3216C24.1363 26.8211 24.7993 26.1582 24.7993 25.3434V1.62636C24.7996 0.81135 24.1366 0.148376 23.3219 0.148376ZM9.83424 2.95557V1.62636C9.83424 1.13824 10.2311 0.741111 10.7192 0.741111H23.3216C23.8094 0.741111 24.2066 1.13824 24.2066 1.62636V2.95557H9.83424Z" fill="black"/>
<path d="M17.0204 25.7335C16.4401 25.7335 15.968 25.2613 15.968 24.6811C15.968 24.1008 16.4401 23.6284 17.0204 23.6284C17.6007 23.6284 18.0728 24.1008 18.0728 24.6811C18.0728 25.2613 17.6007 25.7335 17.0204 25.7335ZM17.0204 24.2214C16.767 24.2214 16.5608 24.4277 16.5608 24.6813C16.5608 24.935 16.7667 25.141 17.0204 25.141C17.2741 25.141 17.4801 24.935 17.4801 24.6813C17.4801 24.4277 17.2741 24.2214 17.0204 24.2214Z" fill="black"/>
<path d="M18.8242 2.12453H15.2168C15.0529 2.12453 14.9204 1.99176 14.9204 1.82817C14.9204 1.66457 15.0529 1.5318 15.2168 1.5318H18.8242C18.988 1.5318 19.1205 1.66457 19.1205 1.82817C19.1205 1.99176 18.988 2.12453 18.8242 2.12453Z" fill="black"/>
<path d="M17.0205 11.7067C18.9847 11.7067 20.5769 10.1144 20.5769 8.15028C20.5769 6.18613 18.9847 4.59387 17.0205 4.59387C15.0564 4.59387 13.4641 6.18613 13.4641 8.15028C13.4641 10.1144 15.0564 11.7067 17.0205 11.7067Z" fill="#8B8282"/>
<path d="M18.8464 12.1421C18.7323 12.028 18.5969 11.9485 18.4528 11.9035C18.5883 11.5609 18.5177 11.1552 18.2409 10.8784C18.1274 10.7648 17.992 10.686 17.8482 10.6419C17.8882 10.5361 17.9087 10.4228 17.9087 10.3064C17.9087 10.0518 17.8094 9.81232 17.6295 9.63272C17.5394 9.54263 17.4357 9.47446 17.3249 9.42793L17.8388 8.91403C18.2104 8.54239 18.2104 7.9381 17.8388 7.56645C17.4784 7.20607 16.8507 7.20666 16.4909 7.56645L13.3301 10.7266C13.2587 10.3073 12.9102 9.97266 12.4671 9.9368C12.214 9.91605 11.9668 9.99577 11.7727 10.1608C11.5789 10.3259 11.4609 10.5562 11.4405 10.8099L11.2034 13.7534C11.1963 13.8174 11.1909 13.8823 11.1874 13.9615C11.153 14.778 11.4648 15.577 12.0421 16.1543C12.6129 16.7251 13.3624 17.0105 14.1119 17.0105C14.8614 17.0105 15.6113 16.7251 16.1818 16.1543L18.8464 13.4896C19.218 13.1183 19.218 12.5137 18.8464 12.1421ZM18.4273 13.0709L15.7627 15.7355C14.8526 16.6454 13.3716 16.6457 12.4609 15.7355C12.0006 15.2753 11.752 14.6378 11.7798 13.9751C11.7822 13.9232 11.7863 13.8717 11.7932 13.8106L12.0311 10.8579C12.0388 10.7619 12.0836 10.6747 12.1568 10.6125C12.2226 10.5568 12.3044 10.5266 12.3897 10.5266C12.3995 10.5266 12.4093 10.5269 12.4194 10.5278C12.6174 10.5438 12.7652 10.7177 12.7495 10.9157L12.7063 11.45C12.6962 11.5739 12.7644 11.691 12.8773 11.7429C12.9899 11.7947 13.1233 11.7713 13.211 11.6833L16.9096 7.98463C17.0501 7.84444 17.2783 7.84415 17.4194 7.98463C17.4873 8.05249 17.5249 8.14318 17.5249 8.2395C17.5249 8.33552 17.4873 8.42621 17.4194 8.49408L16.2819 9.63213L14.8855 11.0283C14.7696 11.1442 14.7696 11.3315 14.8855 11.4474C14.9432 11.5052 15.0191 11.5342 15.095 11.5342C15.1709 11.5342 15.2467 11.5052 15.3045 11.4474L16.701 10.0512C16.837 9.91516 17.0744 9.91516 17.2105 10.0512C17.2786 10.1191 17.316 10.2097 17.316 10.3058C17.316 10.4021 17.2786 10.4925 17.2105 10.5606L16.8933 10.8781L15.8143 11.9571C15.6984 12.073 15.6984 12.2603 15.8143 12.3762C15.8721 12.434 15.9479 12.463 16.0238 12.463C16.0997 12.463 16.1755 12.434 16.2333 12.3762L17.3124 11.2971C17.4529 11.1569 17.6811 11.1563 17.8222 11.2971C17.9626 11.4376 17.9626 11.6664 17.8222 11.8069L17.495 12.1341C17.4938 12.135 17.4929 12.1361 17.4917 12.1373L17.4636 12.1655L16.7431 12.8859C16.6272 13.0018 16.6272 13.1894 16.7431 13.305C16.8009 13.3628 16.8767 13.3918 16.9526 13.3918C17.0285 13.3918 17.1044 13.3628 17.1621 13.305L17.8826 12.5845L17.9123 12.5549C17.9789 12.4891 18.0681 12.4533 18.1645 12.4533C18.1656 12.4533 18.1665 12.4533 18.1674 12.4533C18.2664 12.4538 18.3589 12.4924 18.4279 12.5611C18.5678 12.7016 18.5678 12.9301 18.4273 13.0709Z" fill="black"/>
<path d="M4.63458 23.8927C4.55871 23.8927 4.48284 23.8637 4.42504 23.8059C4.30916 23.69 4.30916 23.5027 4.42504 23.3868L10.6348 17.1771C10.7507 17.0612 10.938 17.0612 11.0539 17.1771C11.1698 17.2929 11.1698 17.4802 11.0539 17.5961L4.84411 23.8059C4.78602 23.864 4.71045 23.8927 4.63458 23.8927Z" fill="#8B8282"/>
<path d="M9.89605 22.2553C9.82018 22.2553 9.74431 22.2262 9.68652 22.1684C9.57064 22.0526 9.57064 21.8653 9.68652 21.7494L13.1961 18.2395C13.312 18.1236 13.4993 18.1236 13.6152 18.2395C13.731 18.3554 13.731 18.5427 13.6152 18.6586L10.1056 22.1684C10.0478 22.2262 9.97192 22.2553 9.89605 22.2553Z" fill="#8B8282"/>
<path d="M3.82152 24.7901H3.4404V24.409C3.4404 24.2451 3.30762 24.1126 3.14403 24.1126C2.98043 24.1126 2.84766 24.2451 2.84766 24.409V24.7901H2.46653C2.30294 24.7901 2.17017 24.9226 2.17017 25.0865C2.17017 25.2504 2.30294 25.3828 2.46653 25.3828H2.84766V25.764C2.84766 25.9279 2.98043 26.0603 3.14403 26.0603C3.30762 26.0603 3.4404 25.9279 3.4404 25.764V25.3828H3.82152C3.98512 25.3828 4.11789 25.2504 4.11789 25.0865C4.11789 24.9226 3.98512 24.7901 3.82152 24.7901Z" fill="#8B8282"/>
<path d="M8.30487 24.5444C8.05 24.5444 7.79542 24.4475 7.6013 24.2537C7.21335 23.8654 7.21335 23.2348 7.601 22.8465C7.97739 22.4701 8.63236 22.4707 9.00845 22.8465C9.39639 23.2345 9.39639 23.8657 9.00845 24.2537C8.81433 24.4475 8.55945 24.5444 8.30487 24.5444ZM8.30487 23.1476C8.19759 23.1476 8.09623 23.1894 8.02036 23.2653C7.86358 23.4221 7.86358 23.6775 8.02036 23.8343C8.17714 23.9914 8.43231 23.9908 8.58909 23.8343C8.74587 23.6775 8.74587 23.4221 8.58909 23.2653C8.51322 23.1894 8.41216 23.1476 8.30487 23.1476Z" fill="#8B8282"/>
<path d="M7.6065 17.4322C7.53063 17.4322 7.45476 17.4032 7.39697 17.3454C7.28109 17.2295 7.28109 17.0422 7.39697 16.9263L9.64017 14.6831C9.75605 14.5672 9.94336 14.5672 10.0592 14.6831C10.1751 14.799 10.1751 14.9863 10.0592 15.1022L7.81603 17.3454C7.75794 17.4035 7.68207 17.4322 7.6065 17.4322Z" fill="#8B8282"/>
<path d="M5.93402 19.8026C5.67915 19.8026 5.42457 19.7057 5.23045 19.5118C4.8425 19.1236 4.8425 18.4929 5.23015 18.1047C5.60654 17.7283 6.26151 17.7289 6.6376 18.1047C7.02554 18.4926 7.02554 19.1239 6.6376 19.5118C6.44348 19.7057 6.1886 19.8026 5.93402 19.8026ZM5.93402 18.4058C5.82674 18.4058 5.72538 18.4476 5.64951 18.5235C5.49273 18.6802 5.49273 18.9357 5.64951 19.0925C5.80599 19.2493 6.06146 19.2493 6.21824 19.0925C6.37502 18.9357 6.37502 18.6802 6.21824 18.5235C6.14237 18.4476 6.04131 18.4058 5.93402 18.4058Z" fill="#8B8282"/>
</svg>
