<svg width="27" height="27" viewBox="0 0 27 27" fill="none" xmlns="http://www.w3.org/2000/svg">
<path d="M13.9115 3.36188H12.5453C12.3023 3.36188 12.1055 3.55867 12.1055 3.80169V6.3214V8.19563C12.1055 8.43865 12.3023 8.63543 12.5453 8.63543C12.7883 8.63543 12.9851 8.43865 12.9851 8.19563V6.76091H13.9115C14.79 6.76091 15.5048 6.04608 15.5048 5.16764V4.95515C15.5048 4.07671 14.79 3.36188 13.9115 3.36188ZM14.6255 5.16764C14.6255 5.56122 14.3051 5.88159 13.9115 5.88159H12.9851V4.2412H13.9115C14.3051 4.2412 14.6255 4.56157 14.6255 4.95515V5.16764Z" fill="black"/>
<path d="M23.4687 8.00387L13.7594 0.244683C13.5988 0.116356 13.3709 0.116356 13.2105 0.244683L3.50126 8.00387C3.39694 8.08715 3.33618 8.2137 3.33618 8.34736V25.7148C3.33618 26.325 3.8326 26.8214 4.44282 26.8214H22.5271C23.1374 26.8214 23.6338 26.325 23.6338 25.7148V8.34736C23.6338 8.2137 23.573 8.08715 23.4687 8.00387ZM14.9873 18.8607C14.0679 18.8607 13.2974 19.5035 13.0976 20.363H9.63517L10.4377 18.2973C10.4668 18.2229 10.54 18.1728 10.62 18.1728H16.3503C16.4312 18.1728 16.5029 18.2217 16.5319 18.2973L17.3348 20.363H16.8769C16.6772 19.5035 15.9066 18.8607 14.9873 18.8607ZM15.9516 20.363H14.0226C14.1903 19.9967 14.5584 19.74 14.987 19.74C15.4161 19.74 15.7839 19.9967 15.9516 20.363ZM17.9643 21.2423C17.9649 21.2423 17.9655 21.2423 17.9663 21.2423H17.9776C18.0176 21.2423 18.0541 21.2627 18.0754 21.2965L18.5265 22.0131C18.5383 22.0315 18.5443 22.0526 18.5443 22.0745V23.2256V23.7872C18.5443 23.8509 18.4921 23.9031 18.4284 23.9031H8.54187C8.47786 23.9031 8.4257 23.8509 8.4257 23.7872V23.2256V22.0745C8.4257 22.0529 8.43192 22.0312 8.44348 22.0126L8.89425 21.2965C8.91529 21.263 8.95293 21.2423 8.99265 21.2423H17.9643ZM16.7717 25.5942V24.7821H18.4284C18.4681 24.7821 18.5057 24.775 18.5443 24.7705V25.5944C18.5443 25.7204 18.4382 25.8265 18.3122 25.8265H17.004C16.8781 25.8265 16.7717 25.7201 16.7717 25.5942ZM8.54187 24.7821H10.1983V25.5942C10.1983 25.7201 10.0919 25.8262 9.96621 25.8262H8.65805C8.53239 25.8262 8.42599 25.7201 8.42599 25.5942V24.7703C8.46422 24.775 8.50216 24.7821 8.54187 24.7821ZM11.0776 25.5942V24.7821H15.8924V25.5942C15.8924 25.7163 15.917 25.8318 15.9537 25.9418H11.0165C11.053 25.8321 11.0776 25.7166 11.0776 25.5942ZM21.064 25.9421H19.3625C19.399 25.8321 19.4239 25.7166 19.4239 25.5944V23.7872V23.2256V22.0745C19.4239 21.8863 19.3708 21.7029 19.2707 21.5443L18.8196 20.828C18.6969 20.6327 18.5123 20.4966 18.3021 20.4237L17.352 17.9787C17.1902 17.5623 16.7972 17.2932 16.3506 17.2932H10.62C10.1734 17.2932 9.78009 17.5623 9.61828 17.9787L8.66812 20.4237C8.458 20.4963 8.27307 20.6327 8.15007 20.828L7.6996 21.5437C7.59913 21.7026 7.54637 21.886 7.54637 22.0745V23.2256V23.7872V25.5944C7.54637 25.7166 7.57097 25.8321 7.60772 25.9421H5.88109V15.7396H21.064V25.9421ZM21.064 14.8603H5.88109V14.139H21.064V14.8603ZM21.064 13.2596H5.88109V12.5386H21.064V13.2596ZM21.064 11.659H5.88109V10.9379H21.064V11.659ZM22.7545 25.7148C22.7545 25.8401 22.6525 25.9421 22.5271 25.9421H21.9433V10.4984C21.9433 10.2554 21.7462 10.0586 21.5035 10.0586H5.44128C5.19826 10.0586 5.00147 10.2554 5.00147 10.4984V25.9421H4.44282C4.31745 25.9421 4.2155 25.8401 4.2155 25.7148V8.55867L13.485 1.15097L22.7542 8.55867L22.7545 25.7148Z" fill="black"/>
<path d="M9.44347 23.0585H11.1245C11.3675 23.0585 11.5643 22.8617 11.5643 22.6186C11.5643 22.3756 11.3675 22.1788 11.1245 22.1788H9.44347C9.20045 22.1788 9.00366 22.3756 9.00366 22.6186C9.00366 22.8617 9.20045 23.0585 9.44347 23.0585Z" fill="black"/>
<path d="M15.8456 23.0585H17.5266C17.7693 23.0585 17.9664 22.8617 17.9664 22.6186C17.9664 22.3756 17.7696 22.1788 17.5266 22.1788H15.8456C15.6028 22.1788 15.4058 22.3756 15.4058 22.6186C15.4058 22.8617 15.6028 23.0585 15.8456 23.0585Z" fill="black"/>
</svg>
