<svg width="25" height="20" viewBox="0 0 25 20" fill="none" xmlns="http://www.w3.org/2000/svg">
<g clip-path="url(#clip0_88_568)">
<path d="M5.33844 0C12.5284 0 12.5284 11.4749 5.33844 11.4749C-1.78029 11.4749 -1.78029 0 5.33844 0ZM8.94765 19.6101H5.4483L15.9972 0.389915H19.4945L8.94765 19.6101ZM5.33844 3.03562C4.98647 3.03562 4.38833 3.17444 4.30491 3.45412C4.2215 3.73175 4.18081 4.49321 4.18081 5.73849C4.18081 7.00214 4.22353 7.76768 4.30491 8.03715C4.38833 8.30662 4.98647 8.44136 5.33844 8.44136C5.70872 8.44136 6.32111 8.30254 6.41266 8.02286C6.50421 7.74523 6.55101 6.98377 6.55101 5.73849C6.55101 4.49525 6.50421 3.73175 6.41266 3.45412C6.32111 3.17648 5.70872 3.03562 5.33844 3.03562ZM19.6064 8.52302C26.7964 8.52302 26.7964 19.998 19.6064 19.998C12.4897 20 12.4897 8.52302 19.6064 8.52302ZM19.6064 11.5586C19.2545 11.5586 18.6563 11.6934 18.5729 11.9628C18.4895 12.2323 18.4488 12.9979 18.4488 14.2615C18.4488 15.5047 18.4915 16.2682 18.5729 16.5459C18.6563 16.8235 19.2545 16.9644 19.6064 16.9644C19.9767 16.9644 20.5891 16.8256 20.6806 16.5459C20.878 15.9518 20.878 12.5712 20.6806 11.9771C20.5891 11.6995 19.9767 11.5586 19.6064 11.5586Z" fill="white"/>
</g>
<defs>
<clipPath id="clip0_88_568">
<rect width="25" height="20" fill="white"/>
</clipPath>
</defs>
</svg>
