<svg width="45" height="21" viewBox="0 0 45 21" fill="none" xmlns="http://www.w3.org/2000/svg">
<g clip-path="url(#clip0_88_583)">
<path fill-rule="evenodd" clip-rule="evenodd" d="M20.215 0.00375354H19.4825C17.8053 0.00375354 15.4615 -0.105337 14.1139 1.02557C11.8141 2.65103 10.0343 5.53103 8.09338 7.41103C6.51867 7.61466 2.87121 8.14921 2.03259 8.89103C1.06213 9.74921 1.07312 12.5092 1.08777 13.6801C-0.713992 13.6438 0.0147682 17.9747 1.18298 18.2219H3.69153C2.0802 8.70194 15.7472 9.88012 13.6891 18.2219H27.6747C25.5653 10.2365 39.0309 8.19648 37.7345 18.1456C40.1259 18.1383 41.4186 18.1092 43.9198 18.1456C44.9122 17.9201 45.0074 17.371 45.0074 16.0547L44.0333 15.9347L44.0626 15.3892C44.0736 15.0656 44.0846 14.7456 44.0956 14.4256C44.1542 12.3128 44.1469 10.2692 44.026 8.3383H21.8885V2.02921C21.9252 0.676481 21.3282 0.0437535 20.215 0.00375354ZM32.9115 14.971C34.0175 14.971 34.911 15.8619 34.911 16.9565C34.911 18.051 34.0138 18.9419 32.9115 18.9419C31.8055 18.9419 30.912 18.051 30.912 16.9565C30.912 15.8619 31.8055 14.971 32.9115 14.971ZM19.922 1.72375H16.6993C15.0367 1.72375 12.8212 4.10921 11.5651 6.45466C11.4369 6.69103 10.4371 8.3383 11.1073 8.3383H19.922V8.08739V1.9783V1.72375ZM8.60608 14.971C9.71203 14.971 10.6056 15.8619 10.6056 16.9565C10.6056 18.051 9.70837 18.9419 8.60608 18.9419C7.50012 18.9419 6.60657 18.051 6.60657 16.9565C6.60657 15.8619 7.50012 14.971 8.60608 14.971ZM8.60608 12.9165C10.8546 12.9165 12.6747 14.7274 12.6747 16.9565C12.6747 19.1856 10.8546 21.0001 8.60608 21.0001C6.35754 21.0001 4.53747 19.1892 4.53747 16.9601C4.53747 14.731 6.35754 12.9165 8.60608 12.9165ZM32.9115 12.9165C35.16 12.9165 36.9801 14.7274 36.9801 16.9565C36.9801 19.1856 35.1564 20.9965 32.9115 20.9965C30.663 20.9965 28.8429 19.1856 28.8429 16.9565C28.8429 14.7274 30.663 12.9165 32.9115 12.9165Z" fill="white"/>
</g>
<defs>
<clipPath id="clip0_88_583">
<rect width="45" height="21" fill="white"/>
</clipPath>
</defs>
</svg>
