<svg width="27" height="27" viewBox="0 0 27 27" fill="none" xmlns="http://www.w3.org/2000/svg">
<path d="M15.8218 25.2981H3.59782C2.35278 25.2981 1.23785 24.6544 0.615179 23.5759C-0.0071923 22.4977 -0.00719237 21.2106 0.615475 20.1324L2.01433 17.7093L1.64505 17.4959L4.39327 15.9095L4.39356 19.083L3.91849 18.8088L2.51963 21.2319C2.19511 21.7935 2.41146 22.2896 2.51963 22.4767C2.62751 22.664 2.94907 23.0993 3.59782 23.0993H15.8221L15.8218 25.2981Z" fill="black"/>
<path d="M4.18872 13.4926L10.3007 2.90634C10.9234 1.82816 12.038 1.18415 13.2833 1.18445C14.5284 1.18445 15.643 1.82816 16.2654 2.90634L17.6645 5.32944L18.0338 5.11635V8.28956L15.2853 6.7031L15.7604 6.42896L14.3612 4.00586C14.037 3.44395 13.4994 3.3832 13.2833 3.3832C13.067 3.3832 12.5294 3.44366 12.2049 4.00557L6.09258 14.5921L4.18872 13.4926Z" fill="black"/>
<path d="M20.2424 9.60721L26.3544 20.1934C26.977 21.2716 26.977 22.559 26.3544 23.6375C25.732 24.7157 24.6171 25.3591 23.372 25.3591L20.574 25.3594V25.7856L17.8258 24.1988L20.574 22.6118V23.1604H23.372C24.0208 23.1604 24.342 22.7253 24.4502 22.538C24.5584 22.3507 24.7747 21.8549 24.4502 21.293L18.3382 10.7061L20.2424 9.60721Z" fill="black"/>
<path d="M14.9108 13.1725C16.3317 13.1725 17.4835 12.9087 17.4835 12.5833C17.4835 12.2579 16.3317 11.9941 14.9108 11.9941C13.4899 11.9941 12.338 12.2579 12.338 12.5833C12.338 12.9087 13.4899 13.1725 14.9108 13.1725Z" fill="black"/>
<path d="M13.485 19.4401C17.153 19.4401 20.1266 18.9369 20.1266 18.3163C20.1266 17.6956 17.153 17.1924 13.485 17.1924C9.81692 17.1924 6.84338 17.6956 6.84338 18.3163C6.84338 18.9369 9.81692 19.4401 13.485 19.4401Z" fill="black"/>
<path d="M13.4849 19.8852C12.2358 19.8852 8.8631 19.8212 7.26331 19.1719C8.09224 20.5014 9.55719 21.3416 11.1679 21.3416H15.8013C17.41 21.3416 18.8753 20.5031 19.7051 19.1725C18.1047 19.8212 14.7338 19.8852 13.4849 19.8852Z" fill="black"/>
<path d="M14.9099 13.6165C14.1767 13.6165 13.1231 13.5581 12.4744 13.2706L13.1688 16.7497C13.2846 16.7488 13.3916 16.7482 13.4853 16.7482C14.1379 16.7482 15.3702 16.766 16.6262 16.8753L17.3455 13.2706C16.6967 13.5581 15.6428 13.6165 14.9099 13.6165Z" fill="black"/>
</svg>
