<svg width="19" height="22" viewBox="0 0 19 22" fill="none" xmlns="http://www.w3.org/2000/svg">
<g clip-path="url(#clip0_88_574)">
<path d="M15.4983 20.1708C15.5333 16.6155 14.2503 14.2389 12.5014 13.0247C11.8236 12.554 11.0796 12.2577 10.3217 12.1349C9.56072 12.0123 8.77979 12.0619 8.03173 12.2832C5.5639 13.014 3.45824 15.6374 3.50189 20.1706L15.4983 20.1708ZM3.58884 3.49515H15.4122C15.4744 2.97201 15.5046 2.41646 15.4983 1.82886H3.50243C3.49632 2.41663 3.52632 2.97201 3.58884 3.49515ZM0.16348 20.1708H1.88218C1.83619 15.2394 4.06868 12.1797 6.83132 11.0045C4.06671 9.82892 1.83331 6.76561 1.88218 1.8285L0.16348 1.82868C0.0734763 1.82868 0.000179649 1.74632 0.000179649 1.64517L0 0.183333C0 0.0823568 0.0734763 0 0.16348 0H18.8365C18.9263 0 19 0.0823568 19 0.183333V1.64499C19 1.74596 18.9263 1.8285 18.8365 1.8285H17.1173C17.1577 5.98447 15.5759 8.81755 13.4264 10.3104C13.0333 10.5828 12.6103 10.8174 12.1699 11.0038C12.6095 11.1916 13.0339 11.4254 13.426 11.6984C15.5737 13.1902 17.1548 16.02 17.1169 20.1704L18.8365 20.1706C18.9263 20.1706 19 20.2535 19 20.3545V21.8158C19 21.9167 18.9263 21.9996 18.8365 21.9996H0.16348C0.0734763 21.9996 0.000179649 21.9167 0.000179649 21.8158V20.3545C0.000179649 20.2537 0.0736559 20.1708 0.16348 20.1708Z" fill="white"/>
</g>
<defs>
<clipPath id="clip0_88_574">
<rect width="19" height="22" fill="white"/>
</clipPath>
</defs>
</svg>
