<svg width="40" height="50" viewBox="0 0 40 50" fill="none" xmlns="http://www.w3.org/2000/svg">
<path d="M23.5128 20.2956V21.6695H16.5042V8.15649H18.7476V18.5217H21.7505C22.7244 18.5217 23.5128 19.3159 23.5128 20.2956Z" fill="#0088CD"/>
<path d="M5.77961 20.8695C3.55351 20.8695 1.73901 22.6956 1.73901 24.9333C1.73901 27.1768 3.55351 29.0028 5.77961 29.0028C8.00568 29.0028 9.82017 27.1768 9.82017 24.9333C9.82017 22.6956 8.00568 20.8695 5.77961 20.8695ZM5.77865 27.264C4.51054 27.264 3.47906 26.2195 3.47906 24.9361C3.47906 23.6527 4.51054 22.6082 5.77865 22.6082C7.04677 22.6082 8.07825 23.6527 8.07825 24.9361C8.07825 26.2195 7.04677 27.264 5.77865 27.264Z" fill="#0088CD"/>
<path d="M5.77866 26.3945C6.56844 26.3945 7.20869 25.7415 7.20869 24.9361C7.20869 24.1307 6.56844 23.4778 5.77866 23.4778C4.98888 23.4778 4.34863 24.1307 4.34863 24.9361C4.34863 25.7415 4.98888 26.3945 5.77866 26.3945Z" fill="#0088CD"/>
<path d="M12.9913 18.7942V25.3682H10.9391C10.8405 25.3682 10.7536 25.3334 10.6782 25.2754C10.684 25.1595 10.6898 25.0493 10.6898 24.9334C10.6898 22.2145 8.48692 20 5.77968 20C4.48114 20 3.29274 20.5102 2.41156 21.3508C2.37678 21.345 2.342 21.3392 2.31303 21.3218C2.16229 21.2522 2.06372 21.0957 2.06372 20.9276V16.4H10.5971C11.9188 16.4 12.9913 17.4725 12.9913 18.7942Z" fill="#0088CD"/>
<path d="M34.8058 21.3043C34.2947 21.3043 33.8095 21.4123 33.3693 21.6047L32.8655 20.7381C33.9515 20.239 35.1738 20.1772 36.3014 20.5681C36.5275 20.6493 36.7768 20.5275 36.8579 20.2957C36.9333 20.0696 36.8115 19.8261 36.5855 19.7449C35.6116 19.4087 34.5739 19.3565 33.5826 19.5768C33.8782 18.5449 33.8319 17.4261 33.4434 16.3826C33.4434 16.3768 33.4434 16.3768 33.4434 16.371C28.9971 5.28696 29.1826 2.31885 25.0956 2.31885H7.26954C4.39997 2.31885 2.06372 4.66667 2.06372 7.55361V15.5304H9.78546V7.28696H25.8666L26.9507 14.2956L25.1362 13.7565C24.9043 13.6869 24.6667 13.8145 24.5971 14.0464C24.5275 14.2783 24.6609 14.5217 24.8869 14.5855L27.0956 15.2464C27.1942 15.942 27.3043 16.3189 27.2696 16.9333C27.1536 19.6754 26.5623 22.5391 23.8087 22.5391H13.855V25.3681H29.7507C29.7507 25.3681 29.7507 25.3681 29.7565 25.3681C29.9594 25.3681 30.1913 25.1884 30.1913 24.9333C30.1858 23.441 30.9034 22.0472 32.1165 21.18L32.6218 22.0491C31.7586 22.7119 31.1999 23.755 31.1999 24.9333C31.1999 26.9449 32.8116 28.5681 34.8058 28.5681C36.7942 28.5681 38.4057 26.9449 38.4057 24.9333C38.4057 22.9275 36.7942 21.3043 34.8058 21.3043ZM31.2347 16.0986C30.8753 16.0986 30.5565 15.8551 30.4637 15.5072L28.8405 9.42029C28.7295 8.99628 28.9779 8.58737 29.3333 8.46376C29.6528 9.25927 28.1875 5.61106 32.4 16.0986H31.2347ZM34.8058 27.2637C33.5362 27.2637 32.5043 26.2203 32.5043 24.9333C32.5043 24.2406 32.8121 23.6245 33.2898 23.1981L33.74 23.9724C33.5151 24.2297 33.3739 24.5642 33.3739 24.9333C33.3739 25.7391 34.0174 26.3942 34.8058 26.3942C35.5942 26.3942 36.2318 25.7391 36.2318 24.9333C36.2318 24.1333 35.5942 23.4783 34.8058 23.4783C34.6942 23.4783 34.5868 23.4944 34.4824 23.5192L34.0365 22.7522C34.2782 22.6648 34.5347 22.6087 34.8058 22.6087C36.0695 22.6087 37.1014 23.6522 37.1014 24.9333C37.1014 26.2203 36.0695 27.2637 34.8058 27.2637Z" fill="#0088CD"/>
</svg>
