<?xml version="1.0" encoding="iso-8859-1"?>
<!-- Uploaded to: SVG Repo, www.svgrepo.com, Generator: SVG Repo Mixer Tools -->
<svg fill="#000000" version="1.1" id="Layer_1" xmlns="http://www.w3.org/2000/svg" xmlns:xlink="http://www.w3.org/1999/xlink" 
	 viewBox="0 0 512 512" xml:space="preserve">
<g>
	<g>
		<path d="M256,0C156.081,0,74.791,81.29,74.791,181.209c0,35.037,10.023,69.04,28.984,98.333
			c16.501,25.491,39.002,46.343,65.498,60.799v65.053h173.454v-65.053c26.496-14.456,48.997-35.308,65.498-60.799
			c18.961-29.293,28.984-63.295,28.984-98.333C437.209,81.29,355.919,0,256,0z M217.082,200.431h-20.558
			c-11.336,0-20.558-9.223-20.558-20.558c0-11.335,9.222-20.558,20.558-20.558s20.558,9.223,20.558,20.558V200.431z
			 M261.526,372.003h-11.053v-138.18h11.053V372.003z M380.193,261.397c-15.067,23.277-36.256,41.813-61.279,53.602l-9.579,4.513
			v52.49h-14.418v-138.18h20.558c29.748,0,53.949-24.202,53.949-53.949s-24.201-53.949-53.949-53.949s-53.949,24.202-53.949,53.949
			v20.558h-11.053v-20.558c0-29.747-24.201-53.949-53.949-53.949c-29.748,0-53.949,24.202-53.949,53.949
			s24.201,53.949,53.949,53.949h20.558v138.18h-14.418v-52.49l-9.579-4.513c-25.021-11.789-46.211-30.325-61.279-53.602
			c-15.456-23.876-23.624-51.604-23.624-80.188c0-81.507,66.311-147.818,147.818-147.818s147.818,66.311,147.818,147.818
			C403.818,209.793,395.649,237.521,380.193,261.397z M294.918,200.431v-20.558c0-11.335,9.222-20.558,20.558-20.558
			c11.336,0,20.558,9.223,20.558,20.558c0,11.335-9.222,20.558-20.558,20.558H294.918z"/>
	</g>
</g>
<g>
	<g>
		<rect x="185.967" y="425.305" width="140.065" height="33.391"/>
	</g>
</g>
<g>
	<g>
		<rect x="215.285" y="478.609" width="81.441" height="33.391"/>
	</g>
</g>
</svg>