<svg width="28" height="35" viewBox="0 0 28 35" fill="none" xmlns="http://www.w3.org/2000/svg">
<g clip-path="url(#clip0_752_198)">
<path d="M26.6918 19.0479C26.5737 19.0282 23.7973 18.5903 22.2892 20.0979C22.1696 20.22 22.0601 20.3517 21.962 20.4916C20.6057 19.4705 18.6011 19.6963 18.5106 19.7072C18.4133 19.7189 18.3229 19.7629 18.2536 19.8322C18.1844 19.9014 18.1403 19.9919 18.1286 20.0891C18.1168 20.1876 17.8517 22.5203 19.1817 23.8556C19.7949 24.4178 20.5712 24.7702 21.3981 24.8618C21.3148 25.254 21.0995 25.6058 20.7882 25.8584C20.4769 26.111 20.0883 26.2493 19.6874 26.25H19.5365C19.1192 26.251 18.7083 26.1466 18.342 25.9466C17.9757 25.7467 17.6658 25.4575 17.4409 25.106C17.2824 24.8594 17.0646 24.6566 16.8074 24.5161C16.5501 24.3757 16.2618 24.3021 15.9687 24.3021C15.6756 24.3021 15.3872 24.3757 15.13 24.5161C14.8728 24.6566 14.6549 24.8594 14.4965 25.106L14.3285 25.3685C14.1549 25.6395 13.9158 25.8624 13.6332 26.0165C13.3507 26.1706 13.0338 26.2509 12.7119 26.25C12.2414 26.2496 11.7904 26.0624 11.4577 25.7298C11.125 25.3971 10.9379 24.946 10.9374 24.4755V23.1258C11.2393 23.048 11.5149 22.891 11.736 22.6712C11.957 22.4513 12.1154 22.1765 12.1948 21.875H13.1249C13.357 21.875 13.5796 21.7828 13.7436 21.6187C13.9077 21.4546 13.9999 21.2321 13.9999 21V18.8125C13.9989 18.7009 13.9553 18.5938 13.878 18.5133C13.8006 18.4328 13.6954 18.3849 13.5839 18.3794C13.6754 17.1853 14.1961 16.0648 15.0499 15.225C16.0107 14.2989 16.6662 13.1019 16.9293 11.7937C17.1923 10.4855 17.0502 9.12812 16.522 7.90269C15.9938 6.67725 15.1046 5.64196 13.9729 4.93485C12.8413 4.22774 11.5209 3.88243 10.188 3.94495C8.9039 4.00552 7.66591 4.44202 6.62779 5.20022C5.58968 5.95842 4.7972 7.0049 4.3488 8.20968C3.9004 9.41445 3.81584 10.7244 4.10563 11.9768C4.39542 13.2293 5.04678 14.369 5.9788 15.2543C6.8242 16.0851 7.33568 17.1969 7.41643 18.3794C7.30461 18.3841 7.19892 18.4318 7.12134 18.5124C7.04376 18.5931 7.00028 18.7006 6.99993 18.8125V21C6.99993 21.2321 7.09211 21.4546 7.25621 21.6187C7.4203 21.7828 7.64286 21.875 7.87493 21.875H8.80505C8.88449 22.1765 9.04288 22.4513 9.26389 22.6712C9.48491 22.891 9.76056 23.048 10.0624 23.1258V24.4755C10.0632 25.178 10.3426 25.8514 10.8393 26.3481C11.336 26.8448 12.0095 27.1242 12.7119 27.125C13.1805 27.1259 13.6417 27.0087 14.0529 26.7842C14.4642 26.5597 14.8122 26.2351 15.0648 25.8405L15.2328 25.578C15.312 25.4548 15.4209 25.3535 15.5495 25.2834C15.6781 25.2132 15.8222 25.1764 15.9687 25.1764C16.1151 25.1764 16.2593 25.2132 16.3878 25.2834C16.5164 25.3535 16.6253 25.4548 16.7046 25.578C17.0084 26.0532 17.4272 26.4441 17.9222 26.7145C18.4172 26.985 18.9724 27.1261 19.5365 27.125H19.6874C20.3073 27.1244 20.907 26.9044 21.3802 26.504C21.8535 26.1037 22.1697 25.5487 22.2731 24.9375C22.2984 24.9375 22.3273 24.9375 22.3518 24.9375C22.4323 24.9375 22.5084 24.9375 22.5793 24.9336H22.6511C23.6258 24.9336 25.0608 24.7503 26.0019 23.8092C27.5099 22.3011 27.0711 19.5243 27.0519 19.4066C27.0367 19.3168 26.9938 19.2339 26.9293 19.1696C26.8647 19.1053 26.7817 19.0627 26.6918 19.0479ZM6.58124 14.6204C5.75818 13.838 5.18818 12.8271 4.94463 11.718C4.70109 10.6088 4.79514 9.45214 5.21469 8.3969C5.63424 7.34166 6.36007 6.43617 7.29872 5.79703C8.23737 5.15789 9.34586 4.81438 10.4814 4.81071C11.617 4.80705 12.7277 5.1434 13.6705 5.77647C14.6132 6.40953 15.3449 7.31032 15.7712 8.36283C16.1976 9.41534 16.2991 10.5714 16.0627 11.6821C15.8263 12.7928 15.2629 13.8073 14.4449 14.595C13.4201 15.5986 12.8002 16.944 12.7032 18.375H8.29711C8.21139 16.9538 7.59972 15.6153 6.58124 14.6204ZM10.4999 22.3125C10.2679 22.3125 10.0453 22.2203 9.88121 22.0562C9.71711 21.8921 9.62493 21.6696 9.62493 21.4375C9.62493 21.3215 9.57883 21.2102 9.49679 21.1282C9.41474 21.0461 9.30346 21 9.18743 21H7.87493V19.25H13.1249V21H11.8124C11.6964 21 11.5851 21.0461 11.5031 21.1282C11.421 21.2102 11.3749 21.3215 11.3749 21.4375C11.3749 21.6696 11.2827 21.8921 11.1186 22.0562C10.9546 22.2203 10.732 22.3125 10.4999 22.3125ZM21.2707 22.2325L20.4211 21.3828L19.8025 22.0015L21.1666 23.366C21.1644 23.5765 21.1706 23.7676 21.1806 23.9308C20.6651 23.8326 20.1872 23.5928 19.8003 23.2383C19.0395 22.4748 18.9638 21.182 18.9769 20.5573C19.5697 20.5446 20.7632 20.6203 21.5372 21.2818C21.4172 21.5891 21.328 21.9075 21.2707 22.2325ZM25.3832 23.1919C24.6614 23.9133 23.4889 24.0568 22.6707 24.0573L25.077 21.651L24.4562 21.0337L22.0434 23.4465C22.0434 22.6271 22.1803 21.4463 22.9092 20.7174C23.8376 19.789 25.5215 19.817 26.2267 19.8752C26.2854 20.5791 26.3147 22.26 25.3832 23.1919Z" fill="#ADC806"/>
<path d="M10.9375 0.875H10.0625V2.625H10.9375V0.875Z" fill="#09ABF5"/>
<path d="M16.9963 3.38491L15.759 4.62256L16.3779 5.24117L17.6151 4.00352L16.9963 3.38491Z" fill="#09ABF5"/>
<path d="M8.64503 14.717C8.60851 14.8115 8.60591 14.9157 8.63768 15.0119C8.66944 15.1081 8.7336 15.1903 8.8192 15.2445C8.9048 15.2986 9.00654 15.3214 9.10707 15.3089C9.20759 15.2964 9.30066 15.2494 9.37041 15.176L13.4427 10.8801C13.4965 10.8232 13.5341 10.7529 13.5515 10.6764C13.5689 10.6 13.5654 10.5203 13.5414 10.4457C13.5174 10.3711 13.4739 10.3042 13.4152 10.2522C13.3566 10.2002 13.2851 10.1649 13.2082 10.15L11.8519 9.88745L12.7982 7.14214C12.8317 7.04607 12.8307 6.94133 12.7952 6.84594C12.7598 6.75056 12.6923 6.67049 12.6043 6.61953C12.5162 6.56856 12.4131 6.54987 12.3128 6.56668C12.2124 6.5835 12.1211 6.63476 12.0545 6.71164L7.98353 11.3658C7.933 11.4237 7.89863 11.4939 7.88387 11.5694C7.86911 11.6448 7.87449 11.7228 7.89946 11.7955C7.92443 11.8682 7.96812 11.933 8.02612 11.9835C8.08412 12.0339 8.15439 12.0682 8.22984 12.0828L9.56641 12.3414L8.64503 14.717ZM9.14378 11.3684L11.2438 8.9687L10.8614 10.0782C10.841 10.1374 10.8335 10.2003 10.8395 10.2627C10.8454 10.3251 10.8647 10.3854 10.8961 10.4397C10.9274 10.4939 10.97 10.5408 11.021 10.5772C11.072 10.6135 11.1302 10.6385 11.1917 10.6505L12.2597 10.857L10.2651 12.9605L10.5713 12.1686C10.5944 12.1089 10.6041 12.0449 10.5997 11.981C10.5953 11.9172 10.577 11.8551 10.546 11.7991C10.515 11.7431 10.4721 11.6946 10.4203 11.657C10.3685 11.6194 10.3091 11.5936 10.2463 11.5815L9.14378 11.3684Z" fill="#09ABF5"/>
<path d="M4.00373 3.38482L3.38501 4.00354L4.62245 5.24098L5.24117 4.62226L4.00373 3.38482Z" fill="#09ABF5"/>
<path d="M20.125 10.0625H18.375V10.9375H20.125V10.0625Z" fill="#09ABF5"/>
<path d="M2.625 10.0625H0.875V10.9375H2.625V10.0625Z" fill="#09ABF5"/>
<path d="M16.3779 15.7592L15.759 16.3778L16.9963 17.6155L17.6151 16.9969L16.3779 15.7592Z" fill="#09ABF5"/>
<path d="M4.6222 15.759L3.38477 16.9965L4.00348 17.6152L5.24092 16.3777L4.6222 15.759Z" fill="#09ABF5"/>
</g>
<defs>
<clipPath id="clip0_752_198">
<rect width="28" height="35" fill="white"/>
</clipPath>
</defs>
</svg>
